<svg width="427" height="305" viewBox="0 0 427 305" preserveAspectRatio="none" xmlns="http://www.w3.org/2000/svg">
<path d="M412.843 125.902C408.948 143.894 405.912 161.955 403.954 180.107C401.971 198.504 401.039 216.954 401.164 235.405C401.194 240.02 401.294 244.63 401.457 249.246C397.974 238.446 395.461 227.535 393.754 216.554C393.868 201.86 393.981 187.166 394.095 172.471C394.217 156.699 394.338 140.932 394.46 125.16C394.995 121.116 395.57 117.077 396.188 113.054C398.172 100.142 400.546 87.2615 403.07 74.4027C404.359 67.8345 405.688 61.2717 407.026 54.7142C407.919 50.3284 409.179 45.8517 409.257 41.3912C411.652 42.549 413.725 44.0537 415.289 46.0492C420.781 53.0549 420.604 62.643 420.793 70.4223C421.246 89.0703 416.82 107.537 412.843 125.902ZM385.72 282.529C382.656 285.506 373.196 283.249 369.108 282.716C354.671 280.822 340.161 279.221 325.6 277.898C327.8 277.754 330 277.62 332.199 277.476C345.648 276.617 359.093 275.684 372.488 274.462C377.403 274.014 382.727 273.763 387.736 272.968C387.76 275.892 388.169 280.144 385.72 282.529ZM94.707 288.59C122.812 284.418 151.111 280.907 179.544 278.074C207.148 277.092 234.8 277.066 262.455 278.122C246.476 279.12 230.498 280.112 214.52 281.11C174.582 283.607 134.644 286.099 94.707 288.59ZM29.1284 292.795C29.1082 292.432 29.0857 292.069 29.0655 291.706C29.4982 292.059 29.9489 292.384 30.4123 292.688C29.9849 292.72 29.5574 292.758 29.1284 292.795ZM17.1319 293.355C10.3424 293.243 10.4547 288.841 10.2787 285.117C10.0826 280.977 9.89916 276.831 9.73295 272.685C9.05093 255.707 8.65339 238.713 8.80462 221.724C9.10857 187.694 11.5859 153.599 18.6929 119.921C19.5673 115.775 20.5136 111.635 21.5348 107.505C21.4165 111.197 21.3019 114.889 21.1889 118.576C19.7852 164.308 19.9334 210.061 21.6254 255.787C21.3596 261.811 21.0699 267.862 21.4876 273.864C21.6643 276.404 22.0042 279.061 22.7468 281.649C22.7858 282.433 22.821 283.217 22.8606 284.007C23.0171 287.07 23.1826 290.138 23.3533 293.206C21.2653 293.318 19.1847 293.387 17.1319 293.355ZM53.1872 20.4062C50.5909 24.5893 48.1286 28.8151 45.7845 33.0676C42.8356 32.6461 39.8926 32.1873 36.9571 31.6964C35.6582 31.4776 34.3623 31.2535 33.0678 31.0241C33.0918 30.1064 33.115 29.194 33.1389 28.2762C33.1532 27.7534 32.4427 27.8441 31.7045 28.0841C32.0863 26.3021 32.6246 24.5413 33.4077 22.8286C33.8023 21.9642 34.2836 21.1852 34.8287 20.4596C40.9482 20.4382 47.0677 20.4222 53.1872 20.4062ZM50.3513 13.4752C53.0113 13.1177 55.7109 12.8883 58.4263 12.7282C57.489 13.9341 56.6056 15.1666 55.7619 16.4098C52.351 16.4205 48.9408 16.4258 45.5307 16.4418C43.5812 16.4472 41.6317 16.4579 39.6822 16.4632C42.6027 14.9372 46.2285 14.0301 50.3513 13.4752ZM74.8848 12.2267C148.317 10.2045 221.985 12.6962 294.826 19.6165C313.183 21.3613 331.488 23.3888 349.723 25.6938C358.847 26.8516 367.955 28.0735 377.043 29.3647C381.349 29.9783 385.658 30.5919 389.95 31.2535C392.948 31.7124 395.913 32.2353 398.31 33.5478C393.204 32.7741 388.062 32.0912 382.911 31.4456C380.44 30.8 377.768 30.3891 375.077 30.1384C372.101 29.8609 369.108 29.6368 366.106 29.4394C365.626 29.386 365.146 29.3274 364.667 29.274C312.177 23.1647 259.113 19.862 206.004 18.1385C157.224 16.5592 108.385 16.3031 59.559 16.4045C60.3691 15.1026 61.2226 13.806 62.1464 12.5468C66.4018 12.3868 70.6743 12.3441 74.8848 12.2267ZM57.1768 20.3955C90.1948 20.3368 123.213 20.4489 156.223 21.0251C207.687 21.9268 259.155 23.9704 310.292 28.2922C312.325 28.463 314.356 28.6444 316.387 28.8258C313.705 28.8845 311.03 28.9539 308.364 29.0232C262.604 30.2291 217.158 34.5189 171.497 36.7332C130.922 38.6967 89.7321 39.0168 49.6633 33.6118C51.5087 30.1864 53.4186 26.7823 55.425 23.3995C56.0059 22.4177 56.5869 21.4146 57.1768 20.3955ZM158.228 275.187C133.986 276.591 109.899 279.301 85.6123 280.299C73.4219 280.795 61.1185 280.864 48.9656 279.915C44.6376 279.579 39.9922 279.093 36.4458 277.135C32.5969 275.017 31.289 271.714 30.8061 268.395C29.5918 260.04 30.0859 251.412 29.8523 243.019C29.615 234.503 29.4076 225.988 29.2295 217.472C29.0678 209.778 28.9352 202.084 28.8214 194.39C29.2093 179.493 29.5963 164.591 29.9834 149.694C30.6467 124.184 31.3092 98.6744 31.9725 73.1648C36.3207 61.2237 41.4348 49.432 47.4233 37.8643C117.784 46.9349 191.139 38.8994 262.014 34.8391C284.488 33.5478 307.027 32.6301 329.581 32.7101C340.839 32.7475 352.097 33.0356 363.321 33.6652C368.707 34.3001 374.086 34.9671 379.458 35.6661C382.432 36.5571 385.038 37.891 386.865 39.9506C389.818 43.28 389.47 47.5432 389.444 51.3154C389.413 55.744 389.376 60.1779 389.341 64.6118C389.275 73.2929 389.207 81.9792 389.14 90.6656C389.044 103.167 388.947 115.668 388.85 128.164C384.777 158.823 383.3 189.823 388.138 220.359C388.07 229.242 388.001 238.121 387.933 247.005C387.885 253.141 387.839 259.271 387.791 265.407C345.369 264.82 302.918 265.711 260.617 268.096C235.334 269.521 210.112 271.479 184.991 273.955C176.062 274.259 167.139 274.67 158.228 275.187ZM32.9451 35.7408C36.4473 36.317 39.9585 36.8506 43.4771 37.3361C42.4739 39.2303 41.4917 41.1297 40.5312 43.0292C37.5665 48.9144 34.8294 54.853 32.293 60.8342C32.4599 54.4208 32.6261 48.0074 32.7931 41.5886C32.844 39.6411 32.8941 37.6936 32.9451 35.7408ZM61.0609 290.581C60.7292 290.639 60.396 290.698 60.0629 290.751C58.8793 290.826 57.6949 290.901 56.5113 290.975C52.0905 291.253 47.6704 291.525 43.2503 291.802C34.4663 290.405 30.2978 285.25 28.397 279.088C28.391 278.97 28.3857 278.853 28.3797 278.736C32.954 283.356 41.8825 283.831 49.4926 284.242C72.6171 285.49 95.7581 283.623 118.722 281.739C117.515 281.905 116.307 282.065 115.101 282.236C102.962 283.916 90.8559 285.725 78.7898 287.651C72.8701 288.601 66.961 289.578 61.0609 290.581ZM298.352 275.753C277.567 274.371 256.712 273.576 235.845 273.357C285 270.012 334.43 268.699 383.798 269.404C384.876 269.42 385.954 269.446 387.032 269.462C381.939 270.012 376.821 270.465 371.711 270.908C347.664 272.994 323.49 274.344 299.354 275.822C299.02 275.801 298.686 275.774 298.352 275.753ZM400.279 265.626C397.978 265.578 395.677 265.535 393.376 265.498C393.409 261.251 393.442 257.009 393.474 252.767C393.494 250.19 393.514 247.613 393.534 245.036C394.136 247.17 394.762 249.299 395.438 251.428C396.922 256.091 398.6 260.728 400.449 265.322C400.395 265.423 400.339 265.525 400.279 265.626ZM403.234 48.5729C402.269 54.4421 400.877 60.2846 399.698 66.1271C397.974 74.6801 396.296 83.2331 394.718 91.7968C394.785 83.0624 394.852 74.3226 394.92 65.5882C394.954 61.1543 394.989 56.7258 395.023 52.2919C395.054 48.2741 395.632 43.9896 394.354 40.0413C394.045 39.0862 393.591 38.2272 393.037 37.4375C396.427 37.875 399.848 38.3925 403.037 39.2036C404.046 42.2502 403.713 45.6757 403.234 48.5729ZM423.62 47.7779C422.402 44.5125 420.408 41.2365 416.934 38.8621C414.505 37.2027 411.493 36.1143 408.327 35.3406C407.112 32.2566 404.575 29.6155 400.01 28.3189C396.469 27.3105 392.53 26.9477 388.814 26.4034C384.035 25.7045 379.25 25.0215 374.46 24.3599C355.794 21.7828 337.047 19.4991 318.239 17.509C243.136 9.56424 167.047 6.34683 91.1524 7.94217C82.5548 8.1236 73.9407 8.30502 65.3529 8.67319C67.3316 6.58694 69.6225 4.68747 72.3805 3.14014C73.0843 2.7453 75.5578 1.12326 74.9716 0.344269C74.327 -0.50943 72.6493 0.434967 71.9508 0.824463C67.8789 3.11346 64.5743 5.85062 61.7511 8.8439C55.7244 9.18005 49.6521 9.84698 44.1779 11.7571C40.5769 13.011 37.6429 14.617 35.2479 16.4845C25.5521 16.5219 15.8555 16.5592 6.15887 16.6072C4.61888 16.6125 3.13729 17.653 2.23741 18.4533C1.98436 18.6775 0.153891 20.6143 1.56062 20.6089C11.4391 20.5609 21.3177 20.5129 31.1962 20.4756C28.9487 23.3034 27.4948 26.4728 26.5785 29.8022C19.4093 28.3936 12.3203 26.7876 5.32486 24.9788C3.50413 24.504 -1.19444 28.479 0.726612 28.9752C8.97082 31.1095 17.2764 32.9236 25.6322 34.4655C25.5356 35.1592 25.4547 35.8582 25.3904 36.5571C25.3776 36.7012 25.3679 36.8452 25.3544 36.984C24.7547 37.5122 24.2891 38.1098 24.2711 38.7287C24.1027 44.774 23.9529 50.8139 23.8129 56.8538C23.1332 67.2583 22.6308 77.6734 22.219 88.0885C21.7264 89.6305 21.2338 91.1725 20.7652 92.7198C10.4734 126.697 5.79801 161.432 4.03193 196.129C3.13429 213.769 2.99878 231.425 3.31846 249.075C3.47792 257.879 3.75194 266.682 4.10231 275.486C4.27375 279.787 4.46316 284.093 4.66754 288.398C4.80754 291.365 4.45118 295.484 9.0367 296.893C13.0697 298.131 18.9789 297.218 23.5576 296.786C23.6984 299.235 23.8384 301.689 23.9866 304.138C24.0503 305.179 29.6936 302.426 29.5986 300.862C29.508 299.374 29.4249 297.88 29.338 296.391C32.6665 296.183 35.9958 295.975 39.3244 295.767C43.4315 296.311 47.8927 296.044 52.2462 295.388C53.8079 295.153 55.3673 294.913 56.926 294.668C66.7649 294.054 76.603 293.441 86.4418 292.827C113.77 291.12 141.099 289.412 168.427 287.705C210.599 285.074 252.777 282.486 294.947 279.84C310.997 280.918 327.002 282.337 342.932 284.103C348.939 284.77 354.936 285.485 360.92 286.248C366.052 286.904 371.432 288.03 376.686 287.854C385.036 287.577 391.116 282.433 392.634 276.873C393.092 275.198 393.27 273.485 393.34 271.767C395.242 271.228 397.045 270.551 398.701 269.686C400.016 269.718 401.331 269.745 402.646 269.777C404.316 269.814 408.325 267.488 407.75 266.138C407.189 264.82 406.653 263.502 406.124 262.184C408.369 256.998 407.24 250.964 407.057 245.708C406.723 236.136 406.675 226.559 406.91 216.986C407.386 197.618 409.021 178.26 411.834 158.994C414.613 139.951 419.208 121.127 422.837 102.169C424.6 92.9599 425.987 83.692 426.345 74.392C426.68 65.6736 426.789 56.2722 423.62 47.7779Z" />
</svg>
