<svg width="445" height="246" viewBox="0 0 445 246" preserveAspectRatio="none" xmlns="http://www.w3.org/2000/svg">
<path d="M417.336 234.373C417.492 233.44 417.648 232.513 417.804 231.585C417.795 232.513 417.787 233.44 417.778 234.363C417.631 234.368 417.483 234.368 417.336 234.373ZM161.665 236.557C223.101 235.056 284.494 232.789 345.775 229.735C368.087 228.625 390.382 227.406 412.659 226.093C412.243 228.881 411.793 231.669 411.334 234.457C328.122 235.603 244.894 236.306 161.665 236.557ZM28.1131 234.165C27.9398 232.445 27.758 230.725 27.5848 229.006C27.1777 224.879 26.7879 220.746 26.4241 216.619C25.7398 208.876 25.1335 201.132 24.6225 193.383C23.5831 177.714 22.8816 162.039 22.5351 146.359C21.8508 115.348 22.5177 84.3215 24.5445 53.3315C24.813 49.1992 25.1075 45.0721 25.428 40.9397C25.4886 41.1169 25.5493 41.2941 25.6099 41.4661C35.4754 71.2627 41.9282 101.466 44.9164 131.799C48.3031 166.062 47.255 200.465 41.781 234.634C37.2423 234.665 32.695 234.686 28.1564 234.712C28.1477 234.524 28.1391 234.342 28.1131 234.165ZM396.046 15.0983C396.54 15.2754 396.956 15.5047 397.293 15.8017C397.579 16.0258 397.804 16.2707 397.995 16.5313C396.341 16.5469 394.678 16.5469 393.023 16.5365C394.011 16.2238 395.154 15.6871 396.046 15.0983ZM45.3755 234.602C46.7613 233.925 48.0433 233.039 48.1299 232.466C57.5623 173.852 54.1324 114.551 37.6928 56.4895C34.6439 45.6974 30.6509 35.0565 26.8398 24.3739C27.3162 19.314 27.8273 14.254 28.3643 9.19411C29.7242 9.18369 31.0581 9.20976 32.1061 9.16286C38.3597 8.88147 44.6133 8.62613 50.8756 8.39163C63.3915 7.92264 75.9248 7.54742 88.4493 7.26602C98.9558 7.03152 109.471 6.84918 119.995 6.73454C188.499 7.51099 256.925 10.7887 324.779 16.573C350.365 18.7512 375.865 21.2941 401.26 24.1811C402.49 27.3754 403.642 30.575 404.699 33.7902C407.072 40.9449 409.03 48.157 410.658 55.3899C413.924 69.887 415.838 84.4831 416.955 99.0948C418.696 122.06 418.575 145.067 418.332 168.058C417.908 177.411 417.25 186.76 416.349 196.103C415.509 204.894 414.452 213.68 413.187 222.45C313.043 228.308 212.569 232.101 111.991 233.795C89.7919 234.165 67.5836 234.431 45.3755 234.602ZM444.066 220.59C437.5 221.002 430.935 221.403 424.361 221.794C424.543 202.31 424.776 182.82 424.872 163.336C426.232 132.154 425.028 100.934 421.225 69.8193C419.38 54.7854 416.92 39.7777 413.889 24.8168C416.124 23.7746 418.376 21.638 416.895 21.4661C415.639 21.3202 414.374 21.1743 413.109 21.0284C413.101 20.9502 413.083 20.8721 413.066 20.7939C412.988 20.4187 412.191 20.4917 411.186 20.8043C409.974 20.6636 408.753 20.5229 407.54 20.3822C407.384 19.9966 407.228 19.6058 407.081 19.2202C409.168 18.0529 411.169 16.0831 408.986 16.1978C407.973 16.2551 406.951 16.2863 405.929 16.328C405.037 13.9831 403.746 10.4604 398.731 10.9867C395.119 11.3619 390.113 14.1602 390.97 16.5156C371.006 16.2394 351.179 14.0456 331.587 11.7736C306.529 8.87624 281.48 6.46873 256.041 5.1295C212.881 2.85228 169.357 2.33119 125.988 2.82103C120.341 2.75328 114.702 2.7012 109.055 2.66994C82.3602 2.52403 55.6654 2.76892 28.9966 3.37862C29.0918 2.47711 29.1872 1.58083 29.2911 0.679306C29.4037 -0.321213 26.1036 1.00238 25.7918 1.1535C24.5792 1.73714 23.2626 2.57611 22.8902 3.52452C22.2666 3.54015 21.643 3.55055 21.0193 3.56619C19.2177 3.6131 17.5547 4.56152 16.4807 5.36925C16.2122 5.57246 14.0814 7.51616 15.7011 7.47447C17.9185 7.41714 20.1358 7.36505 22.3532 7.31294C20.2831 8.1936 18.5248 9.36089 17.3728 10.6741C14.9129 13.4672 16.5326 16.5625 17.6586 19.439C18.6114 21.8726 19.5295 24.3113 20.4303 26.7501C14.8349 86.9114 14.2893 147.234 18.9059 207.427C19.6075 216.541 20.4216 225.645 21.3571 234.748C20.6382 234.754 19.9106 234.759 19.1917 234.759C17.4334 234.769 15.7445 235.749 14.6964 236.531C11.8814 236.52 9.05772 236.515 6.24272 236.505C4.46711 236.499 2.73485 237.536 1.70413 238.313C1.40098 238.537 -0.712484 240.408 0.915883 240.413C7.94038 240.439 14.9562 240.454 21.9807 240.47C22.587 242.049 23.9036 243.232 26.8312 242.846C28.6328 242.607 30.8415 241.653 32.2187 240.501C133.74 240.741 235.262 240.324 336.775 239.225C361.417 238.959 386.059 238.641 410.693 238.292C410.32 240.481 409.939 242.664 409.532 244.853C409.212 246.64 415.699 243.649 415.933 242.341C416.193 240.965 416.427 239.584 416.669 238.209C417.033 238.203 417.388 238.198 417.752 238.193C417.752 238.344 417.752 238.495 417.752 238.646C417.743 239.652 420.887 238.349 421.242 238.177C421.26 238.167 421.286 238.156 421.303 238.146C424.863 238.094 428.414 238.052 431.966 237.995C433.758 237.969 435.448 236.989 436.504 236.192C436.79 235.983 438.912 234.066 437.292 234.092C432.944 234.154 428.596 234.212 424.248 234.274C424.274 231.314 424.3 228.354 424.326 225.389C429.514 225.077 434.703 224.764 439.891 224.441C442.022 224.305 447.08 220.397 444.066 220.59Z" />
</svg>
