<svg width="427" height="279" viewBox="0 0 427 279" preserveAspectRatio="none" xmlns="http://www.w3.org/2000/svg">
<path d="M13.9374 163.503C17.8327 147.043 20.8692 130.52 22.827 113.914C24.8102 97.0836 25.7415 80.2043 25.6172 63.325C25.5865 59.1027 25.487 54.8853 25.3238 50.663C28.8065 60.5427 31.3197 70.5248 33.0266 80.5704C32.9129 94.0133 32.7998 107.456 32.686 120.899C32.564 135.328 32.4427 149.752 32.3207 164.181C31.7862 167.881 31.2112 171.576 30.5928 175.257C28.6089 187.069 26.2348 198.852 23.7104 210.616C22.4219 216.625 21.0923 222.629 19.7552 228.628C18.8614 232.64 17.6014 236.736 17.5235 240.817C15.1285 239.757 13.0562 238.381 11.4915 236.555C6.00015 230.146 6.17685 221.375 5.98743 214.258C5.53525 197.198 9.96054 180.304 13.9374 163.503ZM41.0612 20.2139C44.1248 17.4901 53.5848 19.5549 57.6725 20.043C72.1095 21.7759 86.62 23.2402 101.181 24.4508C98.981 24.5826 96.7808 24.7046 94.582 24.8364C81.1324 25.6223 67.688 26.4765 54.2923 27.5943C49.3773 28.0043 44.0536 28.2337 39.0444 28.961C39.0212 26.2861 38.6117 22.3958 41.0612 20.2139ZM332.074 14.6688C303.968 18.4859 275.669 21.6978 247.237 24.2897C219.632 25.1878 191.981 25.2122 164.326 24.2458C180.305 23.333 196.282 22.4251 212.261 21.5123C252.199 19.2278 292.137 16.9483 332.074 14.6688ZM397.652 10.8224C397.673 11.1543 397.695 11.4862 397.715 11.8181C397.283 11.496 396.832 11.1982 396.368 10.92C396.796 10.8907 397.223 10.8565 397.652 10.8224ZM409.649 10.3098C416.438 10.4123 416.326 14.4394 416.502 17.8465C416.698 21.6343 416.882 25.427 417.048 29.2197C417.73 44.7518 418.127 60.2986 417.976 75.8404C417.672 106.973 415.195 138.164 408.088 168.974C407.213 172.767 406.267 176.555 405.246 180.333C405.364 176.955 405.479 173.577 405.592 170.205C406.996 128.367 406.847 86.5108 405.155 44.6786C405.421 39.1677 405.711 33.6324 405.293 28.141C405.116 25.8175 404.777 23.3867 404.034 21.0193C403.995 20.3017 403.96 19.5842 403.92 18.8618C403.764 16.0599 403.598 13.2532 403.428 10.4465C405.516 10.344 407.596 10.2805 409.649 10.3098ZM373.594 260.014C376.19 256.188 378.652 252.322 380.996 248.431C383.945 248.817 386.888 249.237 389.824 249.686C391.123 249.886 392.419 250.091 393.713 250.301C393.689 251.14 393.666 251.975 393.642 252.815C393.628 253.293 394.338 253.21 395.076 252.99C394.694 254.621 394.156 256.231 393.373 257.798C392.979 258.589 392.497 259.302 391.952 259.966C385.833 259.985 379.713 260 373.594 260.014ZM376.429 266.355C373.769 266.682 371.07 266.892 368.354 267.039C369.292 265.935 370.175 264.808 371.019 263.67C374.43 263.661 377.84 263.656 381.25 263.641C383.2 263.636 385.149 263.627 387.099 263.622C384.178 265.018 380.552 265.847 376.429 266.355ZM351.896 267.497C278.464 269.347 204.795 267.068 131.955 260.737C113.598 259.141 95.2932 257.286 77.0581 255.177C67.9335 254.118 58.8254 253 49.7375 251.819C45.4319 251.257 41.1226 250.696 36.8306 250.091C33.8329 249.671 30.8676 249.193 28.4703 247.992C33.5769 248.7 38.7187 249.324 43.8702 249.915C46.3408 250.506 49.0127 250.882 51.7034 251.111C54.6801 251.365 57.6725 251.57 60.6746 251.75C61.1544 251.799 61.6351 251.853 62.1142 251.902C114.604 257.491 167.667 260.512 220.776 262.089C269.557 263.534 318.396 263.768 367.222 263.675C366.412 264.866 365.558 266.052 364.634 267.204C360.379 267.351 356.106 267.39 351.896 267.497ZM369.604 260.024C336.586 260.078 303.568 259.975 270.558 259.448C219.093 258.623 167.626 256.754 116.488 252.8C114.456 252.644 112.425 252.478 110.394 252.312C113.076 252.258 115.751 252.195 118.417 252.131C164.177 251.028 209.623 247.104 255.284 245.078C295.858 243.282 337.049 242.989 377.117 247.933C375.272 251.067 373.362 254.181 371.356 257.276C370.775 258.174 370.194 259.092 369.604 260.024ZM268.553 26.9304C292.795 25.6467 316.881 23.167 341.168 22.2542C353.359 21.8003 365.662 21.7368 377.815 22.6057C382.143 22.9132 386.789 23.3574 390.335 25.1488C394.184 27.0866 395.492 30.1081 395.975 33.1443C397.189 40.7883 396.695 48.6812 396.928 56.3594C397.166 64.1499 397.373 71.9403 397.551 79.7308C397.713 86.7695 397.846 93.8083 397.959 100.847C397.572 114.475 397.184 128.109 396.797 141.737C396.134 165.074 395.472 188.412 394.808 211.749C390.46 222.673 385.346 233.46 379.357 244.043C308.996 235.745 235.642 243.096 164.766 246.811C142.292 247.992 119.753 248.831 97.1993 248.758C85.9417 248.724 74.6841 248.461 63.4595 247.885C58.0737 247.304 52.6946 246.694 47.323 246.054C44.3486 245.239 41.7425 244.019 39.9158 242.134C36.9631 239.089 37.3105 235.188 37.3367 231.737C37.3674 227.686 37.4048 223.63 37.4393 219.573C37.5059 211.632 37.5733 203.685 37.6407 195.738C37.7372 184.302 37.8338 172.865 37.9304 161.433C42.0038 133.385 43.4809 105.025 38.6423 77.09C38.7105 68.9628 38.7794 60.8404 38.8482 52.7131C38.8954 47.0997 38.9418 41.4912 38.9897 35.8778C81.4116 36.4147 123.863 35.5995 166.164 33.4176C191.447 32.1143 216.668 30.3229 241.79 28.058C250.719 27.7798 259.641 27.4039 268.553 26.9304ZM393.836 245.986C390.333 245.459 386.822 244.97 383.304 244.526C384.307 242.793 385.289 241.056 386.25 239.318C389.214 233.934 391.951 228.501 394.488 223.029C394.321 228.896 394.155 234.764 393.988 240.636C393.937 242.418 393.887 244.199 393.836 245.986ZM365.72 12.8481C366.052 12.7944 366.385 12.7407 366.718 12.6919C367.901 12.6235 369.086 12.5552 370.269 12.4869C374.69 12.233 379.11 11.9841 383.53 11.7303C392.314 13.0092 396.483 17.7244 398.384 23.3623C398.39 23.4697 398.395 23.577 398.401 23.6844C393.827 19.4573 384.898 19.0228 377.288 18.647C354.164 17.5048 331.023 19.2132 308.059 20.9363C309.266 20.785 310.474 20.6385 311.68 20.4823C323.819 18.9447 335.925 17.29 347.991 15.5279C353.911 14.659 359.82 13.7657 365.72 12.8481ZM128.429 26.413C149.214 27.6773 170.069 28.4046 190.936 28.6047C141.78 31.6652 92.351 32.866 42.9823 32.2217C41.9043 32.2071 40.8269 32.1827 39.7488 32.168C44.8419 31.6652 49.9598 31.2503 55.0694 30.8452C79.1169 28.9366 103.291 27.7017 127.427 26.3496C127.761 26.3691 128.095 26.3935 128.429 26.413ZM26.5014 35.6776C28.8028 35.7216 31.1034 35.7606 33.4048 35.7948C33.3718 39.6802 33.3389 43.5608 33.3067 47.4414C33.2865 49.799 33.2663 52.1567 33.2468 54.5143C32.6449 52.5618 32.019 50.6142 31.343 48.6666C29.8584 44.4004 28.1806 40.1586 26.3315 35.9559C26.3861 35.8631 26.4415 35.7704 26.5014 35.6776ZM23.5464 234.246C24.5122 228.877 25.904 223.532 27.0831 218.187C28.8065 210.362 30.485 202.538 32.0632 194.703C31.9958 202.694 31.9284 210.69 31.861 218.68C31.8266 222.736 31.7921 226.788 31.7577 230.844C31.727 234.52 31.149 238.439 32.4263 242.051C32.7362 242.925 33.1899 243.711 33.7439 244.433C30.3539 244.033 26.9326 243.56 23.7441 242.818C22.7349 240.031 23.068 236.897 23.5464 234.246ZM3.16052 234.974C4.3786 237.961 6.37302 240.958 9.84677 243.13C12.2754 244.648 15.288 245.644 18.4541 246.352C19.6684 249.173 22.2056 251.589 26.7709 252.776C30.3121 253.698 34.2507 254.03 37.9663 254.528C42.7458 255.167 47.5304 255.792 52.3203 256.397C70.9866 258.755 89.7337 260.844 108.541 262.665C183.645 269.933 259.734 272.876 335.628 271.417C344.226 271.251 352.84 271.085 361.428 270.748C359.449 272.657 357.158 274.395 354.4 275.81C353.696 276.171 351.223 277.655 351.809 278.368C352.454 279.149 354.131 278.285 354.83 277.929C358.902 275.835 362.206 273.33 365.03 270.592C371.056 270.285 377.129 269.674 382.603 267.927C386.204 266.78 389.138 265.311 391.533 263.602C401.229 263.568 410.925 263.534 420.622 263.49C422.162 263.485 423.643 262.533 424.543 261.801C424.796 261.596 426.627 259.824 425.22 259.829C415.342 259.873 405.463 259.917 395.585 259.951C397.832 257.364 399.286 254.464 400.202 251.419C407.371 252.707 414.46 254.176 421.456 255.831C423.277 256.266 427.975 252.629 426.054 252.175C417.81 250.223 409.504 248.563 401.149 247.152C401.245 246.518 401.326 245.878 401.39 245.239C401.403 245.107 401.413 244.975 401.426 244.848C402.026 244.365 402.492 243.818 402.51 243.252C402.678 237.722 402.828 232.196 402.968 226.671C403.648 217.152 404.15 207.624 404.562 198.096C405.054 196.685 405.547 195.275 406.016 193.859C416.307 162.775 420.983 130.998 422.749 99.2557C423.646 83.1184 423.782 66.9664 423.462 50.8192C423.303 42.7652 423.029 34.7111 422.678 26.6571C422.507 22.7228 422.318 18.7837 422.113 14.8445C421.973 12.1305 422.33 8.36222 417.744 7.07357C413.711 5.94112 407.802 6.77581 403.223 7.17119C403.082 4.93071 402.942 2.68534 402.794 0.444852C402.73 -0.506989 397.087 2.01172 397.182 3.44193C397.273 4.80379 397.356 6.17054 397.443 7.53241C394.114 7.72277 390.785 7.91314 387.456 8.10351C383.349 7.60562 378.888 7.84969 374.535 8.45008C372.973 8.66486 371.413 8.88451 369.855 9.10905C360.016 9.67039 350.178 10.2317 340.339 10.7931C313.011 12.3551 285.682 13.9171 258.354 15.4791C216.182 17.8855 174.004 20.2529 131.834 22.674C115.784 21.688 99.7791 20.3896 83.8492 18.7739C77.842 18.1637 71.8452 17.5097 65.8612 16.8116C60.7285 16.2112 55.3486 15.1813 50.0946 15.3424C41.7448 15.5962 35.6649 20.3017 34.1467 25.388C33.6892 26.9207 33.5103 28.4876 33.4407 30.0593C31.5384 30.5523 29.7356 31.1722 28.0796 31.963C26.7649 31.9337 25.4495 31.9093 24.1349 31.88C22.4646 31.8459 18.4556 33.9741 19.0305 35.209C19.5913 36.4147 20.1273 37.6204 20.6566 38.826C18.4121 43.5706 19.5404 49.0913 19.7238 53.8993C20.0577 62.6562 20.1056 71.418 19.8705 80.175C19.3951 97.8939 17.7593 115.603 14.9466 133.229C12.1676 150.65 7.57236 167.871 3.9436 185.214C2.18054 193.639 0.793274 202.118 0.435425 210.626C0.100769 218.602 -0.00854492 227.203 3.16052 234.974Z" />
</svg>
